<?xml version="1.0" encoding="utf-8"?>
<!-- Generator: Adobe Illustrator 22.1.0, SVG Export Plug-In . SVG Version: 6.00 Build 0)  -->
<svg version="1.1" id="Layer_1" xmlns="http://www.w3.org/2000/svg" xmlns:xlink="http://www.w3.org/1999/xlink" x="0px" y="0px"
	 viewBox="0 0 512 512" style="enable-background:new 0 0 512 512;" xml:space="preserve">
<style type="text/css">
	.st0{fill:#FFFFFF;}
	.st1{fill:#E8E8E8;}
	.st2{fill:#4DCC93;}
</style>
<path class="st0" d="M256,512C114.8,512,0,397.2,0,256S114.8,0,256,0s256,114.8,256,256S397.2,512,256,512z"/>
<path class="st1" d="M375.5,426.7c-141.2,0-256-114.8-256-256c0-59.1,20.3-113.4,54.1-156.8C72.8,48.3,0,143.7,0,256
	c0,141.2,114.8,256,256,256c82.1,0,155-39,201.9-99.2C432,421.6,404.3,426.7,375.5,426.7z"/>
<g>
	<path class="st2" d="M141.2,388.4c-4.5,0-9-1.7-12.5-5.2c-6.9-6.9-6.9-18.1,0-25l229.5-229.5c6.9-6.9,18.1-6.9,25,0
		c6.9,6.9,6.9,18.1,0,25L153.7,383.2C150.3,386.7,145.8,388.4,141.2,388.4z"/>
	<path class="st2" d="M176.6,238.3c-34.1,0-61.8-27.7-61.8-61.8s27.7-61.8,61.8-61.8s61.8,27.7,61.8,61.8S210.6,238.3,176.6,238.3z
		 M176.6,150.1c-14.6,0-26.5,11.9-26.5,26.5s11.9,26.5,26.5,26.5s26.5-11.9,26.5-26.5S191.2,150.1,176.6,150.1z"/>
	<path class="st2" d="M335.4,397.2c-34.1,0-61.8-27.7-61.8-61.8s27.7-61.8,61.8-61.8s61.8,27.7,61.8,61.8S369.5,397.2,335.4,397.2z
		 M335.4,309c-14.6,0-26.5,11.9-26.5,26.5s11.9,26.5,26.5,26.5s26.5-11.9,26.5-26.5C361.9,320.8,350.1,309,335.4,309z"/>
</g>
</svg>
